<svg width="97" height="97" viewBox="0 0 97 97" fill="none" xmlns="http://www.w3.org/2000/svg">
<g clip-path="url(#clip0_261_433)">
<path d="M97 48.5C97 21.7144 75.2856 0 48.5 0C21.7144 0 0 21.7144 0 48.5C0 72.7076 17.7358 92.7725 40.9219 96.4108V62.5195H28.6074V48.5H40.9219V37.8148C40.9219 25.6595 48.1628 18.9453 59.2412 18.9453C64.5474 18.9453 70.0977 19.8926 70.0977 19.8926V31.8281H63.9821C57.9571 31.8281 56.0781 35.5668 56.0781 39.4025V48.5H69.5293L67.379 62.5195H56.0781V96.4108C79.2642 92.7725 97 72.7079 97 48.5Z" fill="#1877F2"/>
<path d="M67.379 62.5195L69.5293 48.5H56.0781V39.4025C56.0781 35.5664 57.9571 31.8281 63.9821 31.8281H70.0977V19.8926C70.0977 19.8926 64.5474 18.9453 59.2409 18.9453C48.1628 18.9453 40.9219 25.6595 40.9219 37.8148V48.5H28.6074V62.5195H40.9219V96.4108C43.4288 96.8037 45.9625 97.0007 48.5 97C51.0375 97.0008 53.5712 96.8038 56.0781 96.4108V62.5195H67.379Z" fill="white"/>
</g>
<defs>
<clipPath id="clip0_261_433">
<rect width="97" height="97" fill="white"/>
</clipPath>
</defs>
</svg>
