<svg width="60" height="55" viewBox="0 0 60 55" fill="none" xmlns="http://www.w3.org/2000/svg">
<g style="mix-blend-mode:multiply">
<path fill-rule="evenodd" clip-rule="evenodd" d="M10 9.7395C8.17664 9.7395 6.42795 10.4035 5.13864 11.5853C3.84933 12.7672 3.125 14.3702 3.125 16.0416V38.9583C3.125 40.6297 3.84933 42.2326 5.13864 43.4145C6.42795 44.5964 8.17664 45.2603 10 45.2603H50C51.8234 45.2603 53.572 44.5964 54.8614 43.4145C56.1507 42.2326 56.875 40.6297 56.875 38.9583V16.0416C56.875 14.3702 56.1507 12.7672 54.8614 11.5853C53.572 10.4035 51.8234 9.7395 50 9.7395H10ZM18.575 19.2178C18.1675 18.9741 17.6725 18.8851 17.1947 18.9697C16.7169 19.0543 16.2937 19.3059 16.0145 19.6713C15.7353 20.0367 15.6221 20.4872 15.6987 20.9278C15.7753 21.3683 16.0358 21.7643 16.425 22.032L28.925 30.0528C29.2401 30.255 29.6154 30.3634 30 30.3634C30.3846 30.3634 30.7599 30.255 31.075 30.0528L43.575 22.032C43.7855 21.9061 43.9663 21.7426 44.1065 21.5513C44.2468 21.3601 44.3436 21.1449 44.3913 20.9186C44.439 20.6924 44.4365 20.4596 44.3841 20.2342C44.3317 20.0089 44.2304 19.7954 44.0862 19.6067C43.9419 19.4179 43.7578 19.2577 43.5446 19.1354C43.3315 19.0132 43.0937 18.9316 42.8455 18.8953C42.5972 18.859 42.3435 18.8689 42.0995 18.9243C41.8555 18.9797 41.6261 19.0795 41.425 19.2178L30 26.5489L18.575 19.2178Z" fill="#D27C2C"/>
</g>
</svg>
