<svg width="60" height="55" viewBox="0 0 60 55" fill="none" xmlns="http://www.w3.org/2000/svg">
<g style="mix-blend-mode:multiply">
<path d="M30 24.0625C32.0711 24.0625 33.75 22.5235 33.75 20.625C33.75 18.7265 32.0711 17.1875 30 17.1875C27.9289 17.1875 26.25 18.7265 26.25 20.625C26.25 22.5235 27.9289 24.0625 30 24.0625Z" fill="#D27C2C"/>
<path d="M30 3.4375C19.6617 3.4375 11.25 10.812 11.25 19.873C11.25 24.1882 13.3957 29.9267 17.6273 36.9295C21.0258 42.552 24.9574 47.6362 27.0023 50.166C27.3479 50.5983 27.7997 50.9498 28.3211 51.1921C28.8425 51.4344 29.4189 51.5607 30.0035 51.5607C30.5881 51.5607 31.1645 51.4344 31.6859 51.1921C32.2073 50.9498 32.6591 50.5983 33.0047 50.166C35.0461 47.6362 38.9813 42.552 42.3797 36.9295C46.6043 29.9288 48.75 24.1903 48.75 19.873C48.75 10.812 40.3383 3.4375 30 3.4375ZM30 27.5C28.5166 27.5 27.0666 27.0968 25.8332 26.3414C24.5999 25.5859 23.6386 24.5122 23.0709 23.2559C22.5032 21.9997 22.3547 20.6174 22.6441 19.2838C22.9335 17.9501 23.6478 16.7251 24.6967 15.7636C25.7456 14.8022 27.082 14.1474 28.5368 13.8821C29.9917 13.6168 31.4997 13.753 32.8701 14.2733C34.2406 14.7937 35.4119 15.6749 36.236 16.8055C37.0601 17.936 37.5 19.2653 37.5 20.625C37.4978 22.4478 36.707 24.1953 35.3009 25.4842C33.8949 26.773 31.9885 27.498 30 27.5Z" fill="#D27C2C"/>
</g>
</svg>
