<svg width="97" height="97" viewBox="0 0 97 97" fill="none" xmlns="http://www.w3.org/2000/svg">
<g clip-path="url(#clip0_30_19)">
<path d="M74.2656 0H22.7344C10.1785 0 0 10.1785 0 22.7344V74.2656C0 86.8215 10.1785 97 22.7344 97H74.2656C86.8215 97 97 86.8215 97 74.2656V22.7344C97 10.1785 86.8215 0 74.2656 0Z" fill="white"/>
<path d="M74.2656 0H22.7344C10.1785 0 0 10.1785 0 22.7344V74.2656C0 86.8215 10.1785 97 22.7344 97H74.2656C86.8215 97 97 86.8215 97 74.2656V22.7344C97 10.1785 86.8215 0 74.2656 0Z" fill="#1D9BF0"/>
<path d="M75.6191 34.6362C75.6608 35.2375 75.6608 35.8388 75.6608 36.4458C75.6608 54.9353 61.5852 76.2594 35.8472 76.2594V76.248C28.2437 76.259 20.7978 74.0814 14.3984 69.9753C15.5041 70.1082 16.615 70.1746 17.729 70.1772C24.031 70.1822 30.1517 68.0685 35.1076 64.1757C32.1876 64.1206 29.3579 63.1543 27.0141 61.4121C24.6702 59.6699 22.9293 57.2388 22.0349 54.4587C24.1313 54.8629 26.2925 54.7804 28.352 54.2177C21.8242 52.8987 17.1277 47.1632 17.1277 40.502V40.3247C19.0737 41.4086 21.2516 42.0092 23.4782 42.076C17.33 37.9668 15.4347 29.7873 19.1473 23.3921C22.6602 27.7151 27.0433 31.2507 32.0117 33.7693C36.9801 36.2878 42.4228 37.7331 47.9862 38.0111C47.4315 35.6234 47.5134 33.1319 48.2238 30.7858C48.9342 28.4396 50.248 26.3211 52.0341 24.6422C57.6699 19.3443 66.5337 19.616 71.8315 25.2488C74.9651 24.6301 77.9701 23.4813 80.7173 21.8519C79.6726 25.0918 77.4867 27.8419 74.5661 29.5907C77.3399 29.2639 80.0488 28.5214 82.6016 27.3881C80.7237 30.2003 78.3592 32.6546 75.6191 34.6362Z" fill="white"/>
</g>
<defs>
<clipPath id="clip0_30_19">
<rect width="97" height="97" fill="white"/>
</clipPath>
</defs>
</svg>
